<svg width="288" height="220" viewBox="0 0 288 220" xmlns="http://www.w3.org/2000/svg" xmlns:xlink="http://www.w3.org/1999/xlink" fill="none" overflow="hidden"><rect x="16.9104" y="33.8209" width="16.9104" height="16.9104" fill="#8EFF59"/><rect x="253.657" y="33.8209" width="16.9104" height="16.9104" fill="#8EFF59"/><rect x="97.9234" y="33.8209" width="105.002" height="16.9104" fill="#8EFF59"/><rect x="186.015" y="16.9104" width="16.9104" height="16.9104" fill="#8EFF59"/><rect x="84.5521" y="33.8209" width="16.9104" height="16.9104" fill="#8EFF59"/><rect x="84.5521" y="16.9104" width="16.9104" height="16.9104" fill="#8EFF59"/><rect x="33.8208" y="16.9104" width="16.9104" height="16.9104" fill="#8EFF59"/><rect x="50.7313" y="0" width="16.9104" height="16.9104" fill="#8EFF59"/><rect x="236.746" y="16.9104" width="16.9104" height="16.9104" fill="#8EFF59"/><rect x="67.6417" y="0" width="169.104" height="16.9104" fill="#8EFF59"/><rect x="1.17969" y="50.7313" width="16.9104" height="16.9104" fill="#8EFF59"/><rect x="270.567" y="50.7313" width="16.9104" height="16.9104" fill="#8EFF59"/><rect x="135.283" y="101.463" width="16.9104" height="16.9104" fill="#8EFF59"/><rect x="0" y="186.015" width="16.9104" height="16.9104" fill="#8EFF59"/><rect x="270.567" y="186.015" width="16.9104" height="16.9104" fill="#8EFF59"/><rect x="0" y="202.925" width="287.478" height="16.9104" fill="#8EFF59"/><rect x="118.373" y="118.373" width="16.9104" height="16.9104" fill="#8EFF59"/><rect x="16.9104" y="169.104" width="253.657" height="16.9104" fill="#8EFF59"/><rect x="152.194" y="118.373" width="16.9104" height="16.9104" fill="#8EFF59"/><rect x="169.105" y="84.5522" width="16.9104" height="84.5522" fill="#8EFF59"/><rect x="101.463" y="84.5522" width="16.9104" height="84.5522" fill="#8EFF59"/><rect x="67.6417" y="84.5522" width="16.9104" height="33.8209" fill="#8EFF59"/><rect x="67.6417" y="118.373" width="16.9104" height="50.7313" fill="#8EFF59"/><rect x="33.8208" y="84.5522" width="16.9104" height="84.5522" fill="#8EFF59"/><rect x="202.926" y="84.5522" width="16.9104" height="84.5522" fill="#8EFF59"/><rect x="236.746" y="84.5522" width="16.9104" height="84.5522" fill="#8EFF59"/><rect x="1.17969" y="67.6418" width="286.298" height="16.9104" fill="#8EFF59"/></svg>