<svg width="535" height="459" viewBox="0 0 535 459" xmlns="http://www.w3.org/2000/svg" xmlns:xlink="http://www.w3.org/1999/xlink" fill="none" overflow="hidden"><rect x="0" y="0" width="19.9167" height="295.686" fill="#2FB3FF" transform="matrix(1 -8.81278e-08 -8.67289e-08 -1 116.436 317.135)"/><rect x="0" y="0" width="19.9167" height="24.5128" fill="#2FB3FF" transform="matrix(1 -8.81278e-08 -8.67289e-08 -1 136.353 340.115)"/><rect x="0" y="0" width="19.9167" height="79.6666" fill="#2FB3FF" transform="matrix(1 -8.81278e-08 -8.67289e-08 -1 0 436.634)"/><rect x="0" y="0" width="19.9167" height="36.7692" fill="#2FB3FF" transform="matrix(1 -8.81278e-08 -8.67289e-08 -1 450.423 393.737)"/><rect x="0" y="0" width="19.9167" height="24.5128" fill="#2FB3FF" transform="matrix(1 -8.81278e-08 -8.67289e-08 -1 370.756 340.115)"/><rect x="0" y="0" width="19.9167" height="274.237" fill="#2FB3FF" transform="matrix(1 -8.81278e-08 -8.67289e-08 -1 430.506 295.686)"/><rect x="0" y="0" width="294.154" height="21.4487" fill="#2FB3FF" transform="matrix(1 -8.81278e-08 -8.67289e-08 -1 136.353 21.4487)"/><rect x="0" y="0" width="294.154" height="21.4487" fill="#2FB3FF" transform="matrix(1 -8.81278e-08 -8.67289e-08 -1 136.353 317.135)"/><rect x="0" y="0" width="470.34" height="21.4487" fill="#2FB3FF" transform="matrix(1 -8.81278e-08 -8.67289e-08 -1 0 356.967)"/><rect x="0" y="0" width="275.769" height="21.4487" fill="#2FB3FF" transform="matrix(1 -8.81278e-08 -8.67289e-08 -1 194.57 393.737)"/><rect x="0" y="0" width="209.891" height="21.4487" fill="#2FB3FF" transform="matrix(1 -8.81278e-08 -8.67289e-08 -1 4.59622 436.634)"/><rect x="0" y="0" width="21.4487" height="21.4487" fill="#2FB3FF" transform="matrix(1 -8.81278e-08 -8.67289e-08 -1 173.122 415.186)"/><rect x="0" y="0" width="21.4487" height="21.4487" fill="#2FB3FF" transform="matrix(1 -8.81278e-08 -8.67289e-08 -1 332.455 277.301)"/><rect x="0" y="0" width="21.4487" height="21.4487" fill="#2FB3FF" transform="matrix(1 -8.81278e-08 -8.67289e-08 -1 186.91 216.019)"/><rect x="0" y="0" width="21.4487" height="21.4487" fill="#2FB3FF" transform="matrix(1 -8.81278e-08 -8.67289e-08 -1 370.756 216.019)"/><rect x="0" y="0" width="21.4487" height="21.4487" fill="#2FB3FF" transform="matrix(1 -8.81278e-08 -8.67289e-08 -1 349.308 85.7949)"/><rect x="0" y="0" width="21.4487" height="193.038" fill="#2FB3FF" transform="matrix(1 -8.81278e-08 -8.67289e-08 -1 392.205 237.468)"/><rect x="0" y="0" width="21.4487" height="21.4487" fill="#2FB3FF" transform="matrix(1 -8.81278e-08 -8.67289e-08 -1 165.461 216.019)"/><rect x="0" y="0" width="21.4487" height="21.4487" fill="#2FB3FF" transform="matrix(1 -8.81278e-08 -8.67289e-08 -1 186.91 194.57)"/><rect x="0" y="0" width="21.4487" height="21.4487" fill="#2FB3FF" transform="matrix(1 -8.81278e-08 -8.67289e-08 -1 186.91 173.121)"/><rect x="0" y="0" width="21.4487" height="21.4487" fill="#2FB3FF" transform="matrix(1 -8.81278e-08 -8.67289e-08 -1 186.91 151.673)"/><rect x="0" y="0" width="21.4487" height="21.4487" fill="#2FB3FF" transform="matrix(1 -8.81278e-08 -8.67289e-08 -1 186.91 130.224)"/><rect x="0" y="0" width="21.4487" height="21.4487" fill="#2FB3FF" transform="matrix(1 -8.81278e-08 -8.67289e-08 -1 165.461 108.775)"/><rect x="0" y="0" width="21.4487" height="21.4487" fill="#2FB3FF" transform="matrix(1 -8.81278e-08 -8.67289e-08 -1 165.461 87.3262)"/><rect x="0" y="0" width="21.4487" height="21.4487" fill="#2FB3FF" transform="matrix(1 -8.81278e-08 -8.67289e-08 -1 165.461 65.8779)"/><rect x="0" y="0" width="21.4487" height="21.4487" fill="#2FB3FF" transform="matrix(1 -8.81278e-08 -8.67289e-08 -1 186.91 65.8779)"/><rect x="0" y="0" width="21.4487" height="21.4487" fill="#2FB3FF" transform="matrix(1 -8.81278e-08 -8.67289e-08 -1 208.359 65.8779)"/><rect x="0" y="0" width="21.4487" height="21.4487" fill="#2FB3FF" transform="matrix(1 -8.81278e-08 -8.67289e-08 -1 229.808 65.8779)"/><rect x="0" y="0" width="21.4487" height="21.4487" fill="#2FB3FF" transform="matrix(1 -8.81278e-08 -8.67289e-08 -1 251.256 65.8779)"/><rect x="0" y="0" width="21.4487" height="21.4487" fill="#2FB3FF" transform="matrix(1 -8.81278e-08 -8.67289e-08 -1 370.756 65.8779)"/><rect x="0" y="0" width="21.4487" height="21.4487" fill="#2FB3FF" transform="matrix(1 -8.81278e-08 -8.67289e-08 -1 349.308 65.8779)"/><rect x="0" y="0" width="21.4487" height="21.4487" fill="#2FB3FF" transform="matrix(1 -8.81278e-08 -8.67289e-08 -1 327.859 85.7949)"/><rect x="0" y="0" width="21.4487" height="21.4487" fill="#2FB3FF" transform="matrix(1 -8.81278e-08 -8.67289e-08 -1 306.41 85.7949)"/><rect x="0" y="0" width="33.7051" height="21.4487" fill="#2FB3FF" transform="matrix(1 -8.81278e-08 -8.67289e-08 -1 272.705 85.7949)"/><rect x="0" y="0" width="226.743" height="21.4487" fill="#2FB3FF" transform="matrix(1 -8.81278e-08 -8.67289e-08 -1 165.461 237.468)"/><rect x="0" y="0" width="21.4487" height="21.4487" fill="#2FB3FF" transform="matrix(1 -8.81278e-08 -8.67289e-08 -1 94.9872 64.3467)"/><rect x="0" y="0" width="21.4487" height="21.4487" fill="#2FB3FF" transform="matrix(1 -8.81278e-08 -8.67289e-08 -1 94.9872 298.749)"/><rect x="0" y="0" width="21.4487" height="21.4487" fill="#2FB3FF" transform="matrix(1 -8.81278e-08 -8.67289e-08 -1 73.5385 277.301)"/><rect x="0" y="0" width="21.4487" height="194.57" fill="#2FB3FF" transform="matrix(1 -8.81278e-08 -8.67289e-08 -1 73.5385 258.916)"/><rect x="0" y="0" width="21.4487" height="21.4487" fill="#2FB3FF" transform="matrix(1 -8.81278e-08 -8.67289e-08 -1 370.756 277.301)"/><rect x="0" y="0" width="21.4487" height="21.4487" fill="#2FB3FF" transform="matrix(1 -8.81278e-08 -8.67289e-08 -1 392.205 277.301)"/><rect x="0" y="0" width="21.4487" height="21.4487" fill="#2FB3FF" transform="matrix(1 -8.81278e-08 -8.67289e-08 -1 470.34 415.186)"/><rect x="0" y="0" width="21.4487" height="21.4487" fill="#2FB3FF" transform="matrix(1 -8.81278e-08 -8.67289e-08 -1 491.788 436.634)"/><rect x="0" y="0" width="320.199" height="21.4487" fill="#2FB3FF" transform="matrix(1 -8.81278e-08 -8.67289e-08 -1 214.487 458.083)"/></svg>