<svg width="295" height="192" viewBox="0 0 295 192" xmlns="http://www.w3.org/2000/svg" xmlns:xlink="http://www.w3.org/1999/xlink" fill="none" overflow="hidden"><rect x="135.369" y="95.7783" width="10.642" height="10.642" fill="#2FB3FF" transform="matrix(6.12323e-17 1 -1 6.12323e-17 231.147 -39.5907)"/><rect x="60.8755" y="159.63" width="10.642" height="10.642" fill="#2FB3FF" transform="matrix(6.12323e-17 1 -1 6.12323e-17 220.505 98.7545)"/><rect x="209.861" y="74.4943" width="10.642" height="10.642" fill="#2FB3FF" transform="matrix(6.12323e-17 1 -1 6.12323e-17 284.355 -135.367)"/><rect x="273.716" y="0" width="10.642" height="10.642" fill="#2FB3FF" transform="matrix(6.12323e-17 1 -1 6.12323e-17 273.716 -273.716)"/><rect x="273.716" y="138.346" width="10.642" height="10.642" fill="#2FB3FF" transform="matrix(6.12323e-17 1 -1 6.12323e-17 412.062 -135.37)"/><rect x="10.6416" y="53.7615" width="10.642" height="10.642" fill="#2FB3FF" transform="matrix(6.12323e-17 1 -1 6.12323e-17 64.4031 43.1199)"/><rect x="103.441" y="0" width="10.642" height="10.642" fill="#2FB3FF" transform="matrix(6.12323e-17 1 -1 6.12323e-17 103.441 -103.441)"/><rect x="209.861" y="95.7783" width="10.642" height="10.642" fill="#2FB3FF" transform="matrix(6.12323e-17 1 -1 6.12323e-17 305.639 -114.083)"/><rect x="273.716" y="21.2848" width="10.642" height="10.642" fill="#2FB3FF" transform="matrix(6.12323e-17 1 -1 6.12323e-17 295.001 -252.431)"/><rect x="273.716" y="159.63" width="10.642" height="10.642" fill="#2FB3FF" transform="matrix(6.12323e-17 1 -1 6.12323e-17 433.346 -114.086)"/><rect x="135.369" y="117.062" width="10.642" height="10.642" fill="#2FB3FF" transform="matrix(6.12323e-17 1 -1 6.12323e-17 252.431 -18.307)"/><rect x="60.8755" y="180.915" width="10.642" height="10.642" fill="#2FB3FF" transform="matrix(6.12323e-17 1 -1 6.12323e-17 241.791 120.039)"/><rect x="10.6416" y="75.0449" width="10.642" height="10.642" fill="#2FB3FF" transform="matrix(6.12323e-17 1 -1 6.12323e-17 85.6865 64.4033)"/><rect x="103.441" y="21.2848" width="10.642" height="10.642" fill="#2FB3FF" transform="matrix(6.12323e-17 1 -1 6.12323e-17 124.726 -82.1562)"/><rect x="209.861" y="85.136" width="10.642" height="10.642" fill="#2FB3FF" transform="matrix(6.12323e-17 1 -1 6.12323e-17 294.997 -124.725)"/><rect x="273.716" y="10.6424" width="10.642" height="10.642" fill="#2FB3FF" transform="matrix(6.12323e-17 1 -1 6.12323e-17 284.358 -263.074)"/><rect x="273.716" y="148.988" width="10.642" height="10.642" fill="#2FB3FF" transform="matrix(6.12323e-17 1 -1 6.12323e-17 422.704 -124.728)"/><rect x="135.369" y="106.421" width="10.642" height="10.642" fill="#2FB3FF" transform="matrix(6.12323e-17 1 -1 6.12323e-17 241.79 -28.948)"/><rect x="60.8755" y="170.273" width="10.642" height="10.642" fill="#2FB3FF" transform="matrix(6.12323e-17 1 -1 6.12323e-17 231.149 109.397)"/><rect x="10.6416" y="64.404" width="10.642" height="10.642" fill="#2FB3FF" transform="matrix(6.12323e-17 1 -1 6.12323e-17 75.0456 53.7624)"/><rect x="103.441" y="10.6424" width="10.642" height="10.642" fill="#2FB3FF" transform="matrix(6.12323e-17 1 -1 6.12323e-17 114.083 -92.7986)"/><rect x="71.5176" y="170.273" width="10.642" height="10.642" fill="#2FB3FF" transform="matrix(6.12323e-17 1 -1 6.12323e-17 241.791 98.7554)"/><rect x="114.086" y="10.6424" width="10.642" height="10.642" fill="#2FB3FF" transform="matrix(6.12323e-17 1 -1 6.12323e-17 124.728 -103.444)"/><rect x="231.148" y="85.136" width="10.642" height="10.642" fill="#2FB3FF" transform="matrix(6.12323e-17 1 -1 6.12323e-17 316.284 -146.012)"/><rect x="294.999" y="10.6424" width="10.642" height="10.642" fill="#2FB3FF" transform="matrix(6.12323e-17 1 -1 6.12323e-17 305.641 -284.357)"/><rect x="294.999" y="148.988" width="10.642" height="10.642" fill="#2FB3FF" transform="matrix(6.12323e-17 1 -1 6.12323e-17 443.987 -146.011)"/><rect x="156.652" y="106.421" width="10.642" height="10.642" fill="#2FB3FF" transform="matrix(6.12323e-17 1 -1 6.12323e-17 263.073 -50.231)"/><rect x="82.1582" y="170.273" width="10.642" height="10.642" fill="#2FB3FF" transform="matrix(6.12323e-17 1 -1 6.12323e-17 252.431 88.1148)"/><rect x="31.927" y="64.404" width="10.642" height="10.642" fill="#2FB3FF" transform="matrix(6.12323e-17 1 -1 6.12323e-17 96.331 32.477)"/><rect x="124.727" y="10.6424" width="10.642" height="10.642" fill="#2FB3FF" transform="matrix(6.12323e-17 1 -1 6.12323e-17 135.369 -114.085)"/><rect x="220.506" y="95.7783" width="10.642" height="10.642" fill="#2FB3FF" transform="matrix(6.12323e-17 1 -1 6.12323e-17 316.284 -124.728)"/><rect x="284.357" y="21.2848" width="10.642" height="10.642" fill="#2FB3FF" transform="matrix(6.12323e-17 1 -1 6.12323e-17 305.642 -263.072)"/><rect x="284.357" y="159.63" width="10.642" height="10.642" fill="#2FB3FF" transform="matrix(6.12323e-17 1 -1 6.12323e-17 443.987 -124.727)"/><rect x="146.011" y="117.062" width="10.642" height="10.642" fill="#2FB3FF" transform="matrix(6.12323e-17 1 -1 6.12323e-17 263.073 -28.949)"/><rect x="71.5176" y="180.915" width="10.642" height="10.642" fill="#2FB3FF" transform="matrix(6.12323e-17 1 -1 6.12323e-17 252.433 109.397)"/><rect x="21.283" y="75.0449" width="10.642" height="10.642" fill="#2FB3FF" transform="matrix(6.12323e-17 1 -1 6.12323e-17 96.3279 53.7619)"/><rect x="114.086" y="21.2848" width="10.642" height="10.642" fill="#2FB3FF" transform="matrix(6.12323e-17 1 -1 6.12323e-17 135.371 -92.8012)"/><rect x="231.148" y="95.7783" width="10.642" height="10.642" fill="#2FB3FF" transform="matrix(6.12323e-17 1 -1 6.12323e-17 326.926 -135.37)"/><rect x="294.999" y="21.2848" width="10.642" height="10.642" fill="#2FB3FF" transform="matrix(6.12323e-17 1 -1 6.12323e-17 316.284 -273.714)"/><rect x="294.999" y="159.63" width="10.642" height="10.642" fill="#2FB3FF" transform="matrix(6.12323e-17 1 -1 6.12323e-17 454.629 -135.369)"/><rect x="156.652" y="117.062" width="10.642" height="10.642" fill="#2FB3FF" transform="matrix(6.12323e-17 1 -1 6.12323e-17 273.714 -39.59)"/><rect x="82.1582" y="180.915" width="10.642" height="10.642" fill="#2FB3FF" transform="matrix(6.12323e-17 1 -1 6.12323e-17 263.073 98.7568)"/><rect x="31.927" y="75.0449" width="10.642" height="10.642" fill="#2FB3FF" transform="matrix(6.12323e-17 1 -1 6.12323e-17 106.972 43.1179)"/><rect x="124.727" y="21.2848" width="10.642" height="10.642" fill="#2FB3FF" transform="matrix(6.12323e-17 1 -1 6.12323e-17 146.012 -103.442)"/><rect x="220.506" y="74.4943" width="10.642" height="10.642" fill="#2FB3FF" transform="matrix(6.12323e-17 1 -1 6.12323e-17 295 -146.012)"/><rect x="284.357" y="0" width="10.642" height="10.642" fill="#2FB3FF" transform="matrix(6.12323e-17 1 -1 6.12323e-17 284.357 -284.357)"/><rect x="284.357" y="138.346" width="10.642" height="10.642" fill="#2FB3FF" transform="matrix(6.12323e-17 1 -1 6.12323e-17 422.703 -146.011)"/><rect x="231.148" y="74.4943" width="10.642" height="10.642" fill="#2FB3FF" transform="matrix(6.12323e-17 1 -1 6.12323e-17 305.642 -156.654)"/><rect x="294.999" y="0" width="10.642" height="10.642" fill="#2FB3FF" transform="matrix(6.12323e-17 1 -1 6.12323e-17 294.999 -294.999)"/><rect x="294.999" y="138.346" width="10.642" height="10.642" fill="#2FB3FF" transform="matrix(6.12323e-17 1 -1 6.12323e-17 433.345 -156.653)"/><rect x="146.011" y="95.7783" width="10.642" height="10.642" fill="#2FB3FF" transform="matrix(6.12323e-17 1 -1 6.12323e-17 241.789 -50.2327)"/><rect x="71.5176" y="159.63" width="10.642" height="10.642" fill="#2FB3FF" transform="matrix(6.12323e-17 1 -1 6.12323e-17 231.148 88.1124)"/><rect x="21.283" y="53.7615" width="10.642" height="10.642" fill="#2FB3FF" transform="matrix(6.12323e-17 1 -1 6.12323e-17 75.0445 32.4785)"/><rect x="114.086" y="0" width="10.642" height="10.642" fill="#2FB3FF" transform="matrix(6.12323e-17 1 -1 6.12323e-17 114.086 -114.086)"/><rect x="156.652" y="95.7783" width="10.642" height="10.642" fill="#2FB3FF" transform="matrix(6.12323e-17 1 -1 6.12323e-17 252.43 -60.8737)"/><rect x="82.1582" y="159.63" width="10.642" height="10.642" fill="#2FB3FF" transform="matrix(6.12323e-17 1 -1 6.12323e-17 241.788 77.4718)"/><rect x="31.927" y="53.7615" width="10.642" height="10.642" fill="#2FB3FF" transform="matrix(6.12323e-17 1 -1 6.12323e-17 85.6885 21.8345)"/><rect x="124.727" y="0" width="10.642" height="10.642" fill="#2FB3FF" transform="matrix(6.12323e-17 1 -1 6.12323e-17 124.727 -124.727)"/><rect x="71.5176" y="74.4943" width="10.642" height="10.642" fill="#2FB3FF" transform="matrix(6.12323e-17 1 -1 6.12323e-17 146.012 2.9767)"/><rect x="61.6458" y="74.4943" width="10.642" height="10.642" fill="#2FB3FF" transform="matrix(6.12323e-17 1 -1 6.12323e-17 136.14 12.8485)"/><rect x="51.9963" y="74.4943" width="10.642" height="10.642" fill="#2FB3FF" transform="matrix(6.12323e-17 1 -1 6.12323e-17 126.491 22.498)"/><rect x="42.3469" y="64.7897" width="10.642" height="10.642" fill="#2FB3FF" transform="matrix(6.12323e-17 1 -1 6.12323e-17 107.137 22.4428)"/><rect x="82.1582" y="85.136" width="10.642" height="10.642" fill="#2FB3FF" transform="matrix(6.12323e-17 1 -1 6.12323e-17 167.294 2.9778)"/><rect x="92.7993" y="95.7783" width="10.642" height="10.642" fill="#2FB3FF" transform="matrix(6.12323e-17 1 -1 6.12323e-17 188.578 2.979)"/><rect x="103.441" y="106.421" width="10.642" height="10.642" fill="#2FB3FF" transform="matrix(6.12323e-17 1 -1 6.12323e-17 209.862 2.98)"/><rect x="114.086" y="106.421" width="10.642" height="10.642" fill="#2FB3FF" transform="matrix(6.12323e-17 1 -1 6.12323e-17 220.507 -7.665)"/><rect x="124.727" y="106.421" width="10.642" height="10.642" fill="#2FB3FF" transform="matrix(6.12323e-17 1 -1 6.12323e-17 231.148 -18.306)"/><rect x="92.7993" y="170.273" width="10.642" height="10.642" fill="#2FB3FF" transform="matrix(6.12323e-17 1 -1 6.12323e-17 263.072 77.4737)"/><rect x="103.441" y="170.273" width="10.642" height="10.642" fill="#2FB3FF" transform="matrix(6.12323e-17 1 -1 6.12323e-17 273.714 66.832)"/><rect x="114.086" y="159.63" width="10.642" height="10.642" fill="#2FB3FF" transform="matrix(6.12323e-17 1 -1 6.12323e-17 273.716 45.544)"/><rect x="124.727" y="148.988" width="10.642" height="10.642" fill="#2FB3FF" transform="matrix(6.12323e-17 1 -1 6.12323e-17 273.715 24.261)"/><rect x="135.369" y="148.988" width="10.642" height="10.642" fill="#2FB3FF" transform="matrix(6.12323e-17 1 -1 6.12323e-17 284.357 13.619)"/><rect x="146.011" y="148.988" width="10.642" height="10.642" fill="#2FB3FF" transform="matrix(6.12323e-17 1 -1 6.12323e-17 294.999 2.977)"/><rect x="156.652" y="148.988" width="10.642" height="10.642" fill="#2FB3FF" transform="matrix(6.12323e-17 1 -1 6.12323e-17 305.64 -7.664)"/><rect x="167.295" y="148.988" width="10.642" height="10.642" fill="#2FB3FF" transform="matrix(6.12323e-17 1 -1 6.12323e-17 316.283 -18.307)"/><rect x="177.937" y="138.346" width="10.642" height="10.642" fill="#2FB3FF" transform="matrix(6.12323e-17 1 -1 6.12323e-17 316.283 -39.591)"/><rect x="188.579" y="127.705" width="10.642" height="10.642" fill="#2FB3FF" transform="matrix(6.12323e-17 1 -1 6.12323e-17 316.284 -60.874)"/><rect x="199.22" y="127.705" width="10.642" height="10.642" fill="#2FB3FF" transform="matrix(6.12323e-17 1 -1 6.12323e-17 326.925 -71.515)"/><rect x="209.861" y="117.062" width="10.642" height="10.642" fill="#2FB3FF" transform="matrix(6.12323e-17 1 -1 6.12323e-17 326.923 -92.799)"/><rect x="220.506" y="106.421" width="10.642" height="10.642" fill="#2FB3FF" transform="matrix(6.12323e-17 1 -1 6.12323e-17 326.927 -114.085)"/><rect x="177.937" y="106.421" width="10.642" height="10.642" fill="#2FB3FF" transform="matrix(6.12323e-17 1 -1 6.12323e-17 284.358 -71.516)"/><rect x="167.295" y="106.421" width="10.642" height="10.642" fill="#2FB3FF" transform="matrix(6.12323e-17 1 -1 6.12323e-17 273.716 -60.874)"/><rect x="188.579" y="95.7783" width="10.642" height="10.642" fill="#2FB3FF" transform="matrix(6.12323e-17 1 -1 6.12323e-17 284.357 -92.8007)"/><rect x="188.579" y="85.136" width="10.642" height="10.642" fill="#2FB3FF" transform="matrix(6.12323e-17 1 -1 6.12323e-17 273.715 -103.443)"/><rect x="199.22" y="85.136" width="10.642" height="10.642" fill="#2FB3FF" transform="matrix(6.12323e-17 1 -1 6.12323e-17 284.356 -114.084)"/><rect x="220.506" y="63.8527" width="10.642" height="10.642" fill="#2FB3FF" transform="matrix(6.12323e-17 1 -1 6.12323e-17 284.359 -156.653)"/><rect x="135.369" y="10.6424" width="10.642" height="10.642" fill="#2FB3FF" transform="matrix(6.12323e-17 1 -1 6.12323e-17 146.011 -124.727)"/><rect x="146.011" y="21.2848" width="10.642" height="10.642" fill="#2FB3FF" transform="matrix(6.12323e-17 1 -1 6.12323e-17 167.296 -124.726)"/><rect x="156.652" y="31.9263" width="10.642" height="10.642" fill="#2FB3FF" transform="matrix(6.12323e-17 1 -1 6.12323e-17 188.578 -124.726)"/><rect x="167.295" y="42.5679" width="10.642" height="10.642" fill="#2FB3FF" transform="matrix(6.12323e-17 1 -1 6.12323e-17 209.863 -124.727)"/><rect x="177.937" y="53.2104" width="10.642" height="10.642" fill="#2FB3FF" transform="matrix(6.12323e-17 1 -1 6.12323e-17 231.147 -124.727)"/><rect x="188.579" y="63.8527" width="10.642" height="10.642" fill="#2FB3FF" transform="matrix(6.12323e-17 1 -1 6.12323e-17 252.432 -124.726)"/><rect x="199.22" y="63.8527" width="10.642" height="10.642" fill="#2FB3FF" transform="matrix(6.12323e-17 1 -1 6.12323e-17 263.073 -135.367)"/><rect x="241.789" y="85.136" width="10.642" height="10.642" fill="#2FB3FF" transform="matrix(6.12323e-17 1 -1 6.12323e-17 326.925 -156.653)"/><rect x="252.43" y="95.7783" width="10.642" height="10.642" fill="#2FB3FF" transform="matrix(6.12323e-17 1 -1 6.12323e-17 348.208 -156.652)"/><rect x="263.071" y="106.421" width="10.642" height="10.642" fill="#2FB3FF" transform="matrix(6.12323e-17 1 -1 6.12323e-17 369.492 -156.65)"/><rect x="273.716" y="117.062" width="10.642" height="10.642" fill="#2FB3FF" transform="matrix(6.12323e-17 1 -1 6.12323e-17 390.778 -156.654)"/><rect x="284.357" y="117.062" width="10.642" height="10.642" fill="#2FB3FF" transform="matrix(6.12323e-17 1 -1 6.12323e-17 401.419 -167.295)"/><rect x="284.357" y="127.705" width="10.642" height="10.642" fill="#2FB3FF" transform="matrix(6.12323e-17 1 -1 6.12323e-17 412.062 -156.652)"/><rect x="231.148" y="53.2104" width="10.642" height="10.642" fill="#2FB3FF" transform="matrix(6.12323e-17 1 -1 6.12323e-17 284.358 -177.938)"/><rect x="241.789" y="42.5679" width="10.642" height="10.642" fill="#2FB3FF" transform="matrix(6.12323e-17 1 -1 6.12323e-17 284.357 -199.221)"/><rect x="252.43" y="31.9263" width="10.642" height="10.642" fill="#2FB3FF" transform="matrix(6.12323e-17 1 -1 6.12323e-17 284.356 -220.504)"/><rect x="252.43" y="21.2848" width="10.642" height="10.642" fill="#2FB3FF" transform="matrix(6.12323e-17 1 -1 6.12323e-17 273.715 -231.145)"/><rect x="252.43" y="10.6424" width="10.642" height="10.642" fill="#2FB3FF" transform="matrix(6.12323e-17 1 -1 6.12323e-17 263.072 -241.788)"/><rect x="263.071" y="10.6424" width="10.642" height="10.642" fill="#2FB3FF" transform="matrix(6.12323e-17 1 -1 6.12323e-17 273.713 -252.429)"/></svg>