<svg width="220" height="220" viewBox="0 0 220 220" xmlns="http://www.w3.org/2000/svg" xmlns:xlink="http://www.w3.org/1999/xlink" fill="none" overflow="hidden"><rect x="98.6211" y="0.000732422" width="30.3448" height="7.58621" fill="#2FB3FF" transform="matrix(6.12323e-17 1 -1 6.12323e-17 98.6218 -98.6204)"/><rect x="0" y="0" width="30.3448" height="7.58621" fill="#2FB3FF" transform="matrix(-4.37114e-08 -1 -1 4.37114e-08 98.6211 220)"/><rect x="0" y="121.379" width="30.3448" height="7.58621" fill="#2FB3FF"/><rect x="0" y="0" width="30.3448" height="7.58621" fill="#2FB3FF" transform="matrix(-1 0 0 1 220 121.379)"/><rect x="106.207" y="0.000732422" width="7.58621" height="7.58621" fill="#2FB3FF" transform="matrix(6.12323e-17 1 -1 6.12323e-17 106.208 -106.206)"/><rect x="106.207" y="7.58667" width="7.58621" height="7.58621" fill="#2FB3FF" transform="matrix(6.12323e-17 1 -1 6.12323e-17 113.794 -98.6203)"/><rect x="113.793" y="7.58667" width="7.58621" height="7.58621" fill="#2FB3FF" transform="matrix(6.12323e-17 1 -1 6.12323e-17 121.38 -106.206)"/><rect x="121.379" y="7.58667" width="7.58621" height="7.58621" fill="#2FB3FF" transform="matrix(6.12323e-17 1 -1 6.12323e-17 128.966 -113.792)"/><rect x="45.5176" y="22.7582" width="7.58621" height="7.58621" fill="#2FB3FF" transform="matrix(6.12323e-17 1 -1 6.12323e-17 68.2758 -22.7594)"/><rect x="45.5176" y="30.3442" width="7.58621" height="7.58621" fill="#2FB3FF" transform="matrix(6.12323e-17 1 -1 6.12323e-17 75.8618 -15.1734)"/><rect x="37.9312" y="37.9307" width="7.58621" height="7.58621" fill="#2FB3FF" transform="matrix(6.12323e-17 1 -1 6.12323e-17 75.8619 -0.0005)"/><rect x="182.069" y="30.3442" width="7.58621" height="7.58621" fill="#2FB3FF" transform="matrix(6.12323e-17 1 -1 6.12323e-17 212.413 -151.725)"/><rect x="189.655" y="37.9307" width="7.58621" height="7.58621" fill="#2FB3FF" transform="matrix(6.12323e-17 1 -1 6.12323e-17 227.586 -151.724)"/><rect x="189.655" y="174.482" width="7.58621" height="7.58621" fill="#2FB3FF" transform="matrix(6.12323e-17 1 -1 6.12323e-17 364.137 -15.173)"/><rect x="182.069" y="182.068" width="7.58621" height="7.58621" fill="#2FB3FF" transform="matrix(6.12323e-17 1 -1 6.12323e-17 364.137 -0.001)"/><rect x="45.5176" y="182.068" width="7.58621" height="7.58621" fill="#2FB3FF" transform="matrix(6.12323e-17 1 -1 6.12323e-17 227.586 136.55)"/><rect x="37.9312" y="174.482" width="7.58621" height="7.58621" fill="#2FB3FF" transform="matrix(6.12323e-17 1 -1 6.12323e-17 212.413 136.551)"/><rect x="37.9312" y="30.3442" width="7.58621" height="7.58621" fill="#2FB3FF" transform="matrix(6.12323e-17 1 -1 6.12323e-17 68.2754 -7.587)"/><rect x="182.069" y="22.7582" width="7.58621" height="7.58621" fill="#2FB3FF" transform="matrix(6.12323e-17 1 -1 6.12323e-17 204.827 -159.311)"/><rect x="189.655" y="30.3442" width="7.58621" height="7.58621" fill="#2FB3FF" transform="matrix(6.12323e-17 1 -1 6.12323e-17 219.999 -159.311)"/><rect x="197.241" y="37.9307" width="7.58621" height="7.58621" fill="#2FB3FF" transform="matrix(6.12323e-17 1 -1 6.12323e-17 235.172 -159.31)"/><rect x="212.414" y="98.6201" width="7.58621" height="7.58621" fill="#2FB3FF" transform="matrix(6.12323e-17 1 -1 6.12323e-17 311.034 -113.794)"/><rect x="212.414" y="106.206" width="7.58621" height="7.58621" fill="#2FB3FF" transform="matrix(6.12323e-17 1 -1 6.12323e-17 318.62 -106.208)"/><rect x="212.414" y="113.793" width="7.58621" height="7.58621" fill="#2FB3FF" transform="matrix(6.12323e-17 1 -1 6.12323e-17 326.207 -98.621)"/><rect x="197.241" y="174.482" width="7.58621" height="7.58621" fill="#2FB3FF" transform="matrix(6.12323e-17 1 -1 6.12323e-17 371.723 -22.759)"/><rect x="189.655" y="182.068" width="7.58621" height="7.58621" fill="#2FB3FF" transform="matrix(6.12323e-17 1 -1 6.12323e-17 371.723 -7.587)"/><rect x="182.069" y="189.655" width="7.58621" height="7.58621" fill="#2FB3FF" transform="matrix(6.12323e-17 1 -1 6.12323e-17 371.724 7.586)"/><rect x="121.379" y="204.827" width="7.58621" height="7.58621" fill="#2FB3FF" transform="matrix(6.12323e-17 1 -1 6.12323e-17 326.206 83.448)"/><rect x="113.793" y="204.827" width="7.58621" height="7.58621" fill="#2FB3FF" transform="matrix(6.12323e-17 1 -1 6.12323e-17 318.62 91.034)"/><rect x="106.207" y="204.827" width="7.58621" height="7.58621" fill="#2FB3FF" transform="matrix(6.12323e-17 1 -1 6.12323e-17 311.034 98.62)"/><rect x="45.5176" y="189.655" width="7.58621" height="7.58621" fill="#2FB3FF" transform="matrix(6.12323e-17 1 -1 6.12323e-17 235.173 144.137)"/><rect x="37.9312" y="182.068" width="7.58621" height="7.58621" fill="#2FB3FF" transform="matrix(6.12323e-17 1 -1 6.12323e-17 219.999 144.137)"/><rect x="30.3447" y="174.482" width="7.58621" height="7.58621" fill="#2FB3FF" transform="matrix(6.12323e-17 1 -1 6.12323e-17 204.827 144.137)"/><rect x="15.1724" y="113.793" width="7.58621" height="7.58621" fill="#2FB3FF" transform="matrix(6.12323e-17 1 -1 6.12323e-17 128.965 98.6206)"/><rect x="15.1724" y="106.206" width="7.58621" height="7.58621" fill="#2FB3FF" transform="matrix(6.12323e-17 1 -1 6.12323e-17 121.378 91.0336)"/><rect x="15.1724" y="98.6201" width="7.58621" height="7.58621" fill="#2FB3FF" transform="matrix(6.12323e-17 1 -1 6.12323e-17 113.792 83.4477)"/><rect x="30.3447" y="37.9307" width="7.58621" height="7.58621" fill="#2FB3FF" transform="matrix(6.12323e-17 1 -1 6.12323e-17 68.2754 7.586)"/><rect x="0" y="113.793" width="7.58621" height="7.58621" fill="#2FB3FF"/><rect x="0" y="0" width="7.58621" height="7.58621" fill="#2FB3FF" transform="matrix(-4.37114e-08 -1 -1 4.37114e-08 106.207 220)"/><rect x="113.793" y="0.000732422" width="7.58621" height="7.58621" fill="#2FB3FF" transform="matrix(6.12323e-17 1 -1 6.12323e-17 113.794 -113.792)"/><rect x="0" y="106.206" width="7.58621" height="7.58621" fill="#2FB3FF"/><rect x="91.0347" y="30.3442" width="7.58621" height="7.58621" fill="#2FB3FF" transform="matrix(6.12323e-17 1 -1 6.12323e-17 121.379 -60.6905)"/><rect x="83.4478" y="30.3442" width="7.58621" height="7.58621" fill="#2FB3FF" transform="matrix(6.12323e-17 1 -1 6.12323e-17 113.792 -53.1036)"/><rect x="75.8623" y="37.9307" width="7.58621" height="7.58621" fill="#2FB3FF" transform="matrix(6.12323e-17 1 -1 6.12323e-17 113.793 -37.9316)"/><rect x="68.2754" y="37.9307" width="7.58621" height="7.58621" fill="#2FB3FF" transform="matrix(6.12323e-17 1 -1 6.12323e-17 106.206 -30.3447)"/><rect x="0" y="0" width="7.58621" height="7.58621" fill="#2FB3FF" transform="matrix(-1 0 0 1 220 113.793)"/><rect x="0" y="0" width="7.58621" height="7.58621" fill="#2FB3FF" transform="matrix(-4.37114e-08 -1 -1 4.37114e-08 113.793 220)"/><rect x="0" y="0" width="7.58621" height="7.58621" fill="#2FB3FF" transform="matrix(-1 0 0 1 220 106.207)"/><rect x="0" y="0" width="7.58621" height="7.58621" fill="#2FB3FF" transform="matrix(-4.37114e-08 -1 -1 4.37114e-08 91.0347 189.655)"/><rect x="0" y="0" width="7.58621" height="7.58621" fill="#2FB3FF" transform="matrix(-4.37114e-08 -1 -1 4.37114e-08 83.4478 189.655)"/><rect x="0" y="0" width="7.58621" height="7.58621" fill="#2FB3FF" transform="matrix(-4.37114e-08 -1 -1 4.37114e-08 75.8623 182.068)"/><rect x="0" y="0" width="7.58621" height="7.58621" fill="#2FB3FF" transform="matrix(-4.37114e-08 -1 -1 4.37114e-08 68.2754 182.068)"/><rect x="60.6899" y="30.3442" width="7.58621" height="7.58621" fill="#2FB3FF" transform="matrix(6.12323e-17 1 -1 6.12323e-17 91.0341 -30.3457)"/><rect x="60.6899" y="37.9307" width="7.58621" height="7.58621" fill="#2FB3FF" transform="matrix(6.12323e-17 1 -1 6.12323e-17 98.6206 -22.7592)"/><rect x="68.2754" y="45.5167" width="7.58621" height="7.58621" fill="#2FB3FF" transform="matrix(6.12323e-17 1 -1 6.12323e-17 113.792 -22.7587)"/><rect x="53.1035" y="60.6892" width="7.58621" height="7.58621" fill="#2FB3FF" transform="matrix(6.12323e-17 1 -1 6.12323e-17 113.793 7.5857)"/><rect x="45.5176" y="53.1029" width="7.58621" height="7.58621" fill="#2FB3FF" transform="matrix(6.12323e-17 1 -1 6.12323e-17 98.6205 7.5853)"/><rect x="37.9312" y="45.5167" width="7.58621" height="7.58621" fill="#2FB3FF" transform="matrix(6.12323e-17 1 -1 6.12323e-17 83.4479 7.5855)"/><rect x="53.1035" y="30.3442" width="7.58621" height="7.58621" fill="#2FB3FF" transform="matrix(6.12323e-17 1 -1 6.12323e-17 83.4477 -22.7593)"/><rect x="166.896" y="37.9307" width="7.58621" height="7.58621" fill="#2FB3FF" transform="matrix(6.12323e-17 1 -1 6.12323e-17 204.827 -128.965)"/><rect x="174.482" y="30.3442" width="7.58621" height="7.58621" fill="#2FB3FF" transform="matrix(6.12323e-17 1 -1 6.12323e-17 204.826 -144.138)"/><rect x="189.655" y="45.5167" width="7.58621" height="7.58621" fill="#2FB3FF" transform="matrix(6.12323e-17 1 -1 6.12323e-17 235.172 -144.138)"/><rect x="182.069" y="53.1029" width="7.58621" height="7.58621" fill="#2FB3FF" transform="matrix(6.12323e-17 1 -1 6.12323e-17 235.172 -128.966)"/><rect x="189.655" y="166.896" width="7.58621" height="7.58621" fill="#2FB3FF" transform="matrix(6.12323e-17 1 -1 6.12323e-17 356.551 -22.759)"/><rect x="182.069" y="159.31" width="7.58621" height="7.58621" fill="#2FB3FF" transform="matrix(6.12323e-17 1 -1 6.12323e-17 341.379 -22.759)"/><rect x="174.482" y="182.068" width="7.58621" height="7.58621" fill="#2FB3FF" transform="matrix(6.12323e-17 1 -1 6.12323e-17 356.55 7.586)"/><rect x="166.896" y="174.482" width="7.58621" height="7.58621" fill="#2FB3FF" transform="matrix(6.12323e-17 1 -1 6.12323e-17 341.378 7.586)"/><rect x="53.1035" y="182.068" width="7.58621" height="7.58621" fill="#2FB3FF" transform="matrix(6.12323e-17 1 -1 6.12323e-17 235.172 128.964)"/><rect x="60.6899" y="174.482" width="7.58621" height="7.58621" fill="#2FB3FF" transform="matrix(6.12323e-17 1 -1 6.12323e-17 235.172 113.792)"/><rect x="37.9312" y="166.896" width="7.58621" height="7.58621" fill="#2FB3FF" transform="matrix(6.12323e-17 1 -1 6.12323e-17 204.827 128.965)"/><rect x="45.5176" y="159.31" width="7.58621" height="7.58621" fill="#2FB3FF" transform="matrix(6.12323e-17 1 -1 6.12323e-17 204.828 113.792)"/><rect x="53.1035" y="68.2754" width="7.58621" height="7.58621" fill="#2FB3FF" transform="matrix(6.12323e-17 1 -1 6.12323e-17 121.379 15.1719)"/><rect x="45.5176" y="75.8615" width="7.58621" height="7.58621" fill="#2FB3FF" transform="matrix(6.12323e-17 1 -1 6.12323e-17 121.379 30.3439)"/><rect x="174.482" y="60.6892" width="7.58621" height="7.58621" fill="#2FB3FF" transform="matrix(6.12323e-17 1 -1 6.12323e-17 235.171 -113.793)"/><rect x="174.482" y="68.2754" width="7.58621" height="7.58621" fill="#2FB3FF" transform="matrix(6.12323e-17 1 -1 6.12323e-17 242.757 -106.207)"/><rect x="182.069" y="75.8615" width="7.58621" height="7.58621" fill="#2FB3FF" transform="matrix(6.12323e-17 1 -1 6.12323e-17 257.93 -106.207)"/><rect x="182.069" y="83.4479" width="7.58621" height="7.58621" fill="#2FB3FF" transform="matrix(6.12323e-17 1 -1 6.12323e-17 265.517 -98.6211)"/><rect x="182.069" y="128.965" width="7.58621" height="7.58621" fill="#2FB3FF" transform="matrix(6.12323e-17 1 -1 6.12323e-17 311.034 -53.104)"/><rect x="182.069" y="136.551" width="7.58621" height="7.58621" fill="#2FB3FF" transform="matrix(6.12323e-17 1 -1 6.12323e-17 318.62 -45.518)"/><rect x="174.482" y="144.138" width="7.58621" height="7.58621" fill="#2FB3FF" transform="matrix(6.12323e-17 1 -1 6.12323e-17 318.62 -30.344)"/><rect x="174.482" y="151.724" width="7.58621" height="7.58621" fill="#2FB3FF" transform="matrix(6.12323e-17 1 -1 6.12323e-17 326.206 -22.758)"/><rect x="159.31" y="166.896" width="7.58621" height="7.58621" fill="#2FB3FF" transform="matrix(6.12323e-17 1 -1 6.12323e-17 326.206 7.586)"/><rect x="151.725" y="166.896" width="7.58621" height="7.58621" fill="#2FB3FF" transform="matrix(6.12323e-17 1 -1 6.12323e-17 318.621 15.171)"/><rect x="144.138" y="174.482" width="7.58621" height="7.58621" fill="#2FB3FF" transform="matrix(6.12323e-17 1 -1 6.12323e-17 318.62 30.344)"/><rect x="136.552" y="174.482" width="7.58621" height="7.58621" fill="#2FB3FF" transform="matrix(6.12323e-17 1 -1 6.12323e-17 311.034 37.93)"/><rect x="91.0347" y="174.482" width="7.58621" height="7.58621" fill="#2FB3FF" transform="matrix(6.12323e-17 1 -1 6.12323e-17 265.517 83.4473)"/><rect x="83.4478" y="174.482" width="7.58621" height="7.58621" fill="#2FB3FF" transform="matrix(6.12323e-17 1 -1 6.12323e-17 257.93 91.0342)"/><rect x="75.8623" y="166.896" width="7.58621" height="7.58621" fill="#2FB3FF" transform="matrix(6.12323e-17 1 -1 6.12323e-17 242.758 91.0337)"/><rect x="68.2754" y="166.896" width="7.58621" height="7.58621" fill="#2FB3FF" transform="matrix(6.12323e-17 1 -1 6.12323e-17 235.171 98.6206)"/><rect x="53.1035" y="151.724" width="7.58621" height="7.58621" fill="#2FB3FF" transform="matrix(6.12323e-17 1 -1 6.12323e-17 204.827 98.6205)"/><rect x="53.1035" y="144.138" width="7.58621" height="7.58621" fill="#2FB3FF" transform="matrix(6.12323e-17 1 -1 6.12323e-17 197.242 91.0345)"/><rect x="45.5176" y="136.551" width="7.58621" height="7.58621" fill="#2FB3FF" transform="matrix(6.12323e-17 1 -1 6.12323e-17 182.069 91.0334)"/><rect x="45.5176" y="128.965" width="7.58621" height="7.58621" fill="#2FB3FF" transform="matrix(6.12323e-17 1 -1 6.12323e-17 174.483 83.4474)"/><rect x="45.5176" y="83.4479" width="7.58621" height="7.58621" fill="#2FB3FF" transform="matrix(6.12323e-17 1 -1 6.12323e-17 128.966 37.9303)"/><rect x="75.8623" y="45.5167" width="7.58621" height="7.58621" fill="#2FB3FF" transform="matrix(6.12323e-17 1 -1 6.12323e-17 121.379 -30.3456)"/><rect x="83.4478" y="37.9307" width="7.58621" height="7.58621" fill="#2FB3FF" transform="matrix(6.12323e-17 1 -1 6.12323e-17 121.379 -45.5171)"/><rect x="91.0347" y="37.9307" width="7.58621" height="7.58621" fill="#2FB3FF" transform="matrix(6.12323e-17 1 -1 6.12323e-17 128.965 -53.104)"/><rect x="98.6211" y="30.3442" width="7.58621" height="7.58621" fill="#2FB3FF" transform="matrix(6.12323e-17 1 -1 6.12323e-17 128.965 -68.2769)"/><rect x="128.965" y="30.3442" width="7.58621" height="7.58621" fill="#2FB3FF" transform="matrix(6.12323e-17 1 -1 6.12323e-17 159.309 -98.6208)"/><rect x="136.552" y="37.9307" width="7.58621" height="7.58621" fill="#2FB3FF" transform="matrix(6.12323e-17 1 -1 6.12323e-17 174.483 -98.6213)"/><rect x="144.138" y="37.9307" width="7.58621" height="7.58621" fill="#2FB3FF" transform="matrix(6.12323e-17 1 -1 6.12323e-17 182.069 -106.207)"/><rect x="151.725" y="45.5167" width="7.58621" height="7.58621" fill="#2FB3FF" transform="matrix(6.12323e-17 1 -1 6.12323e-17 197.242 -106.208)"/><rect x="159.31" y="45.5167" width="7.58621" height="7.58621" fill="#2FB3FF" transform="matrix(6.12323e-17 1 -1 6.12323e-17 204.827 -113.793)"/><rect x="53.1035" y="22.7582" width="7.58621" height="7.58621" fill="#2FB3FF" transform="matrix(6.12323e-17 1 -1 6.12323e-17 75.8617 -30.3453)"/><rect x="45.5176" y="15.172" width="7.58621" height="7.58621" fill="#2FB3FF" transform="matrix(6.12323e-17 1 -1 6.12323e-17 60.6896 -30.3456)"/><rect x="37.9312" y="22.7582" width="7.58621" height="7.58621" fill="#2FB3FF" transform="matrix(6.12323e-17 1 -1 6.12323e-17 60.6894 -15.173)"/><rect x="30.3447" y="30.3442" width="7.58621" height="7.58621" fill="#2FB3FF" transform="matrix(6.12323e-17 1 -1 6.12323e-17 60.6889 -0.0005)"/><rect x="22.7588" y="37.9307" width="7.58621" height="7.58621" fill="#2FB3FF" transform="matrix(6.12323e-17 1 -1 6.12323e-17 60.6895 15.1719)"/><rect x="30.3447" y="45.5167" width="7.58621" height="7.58621" fill="#2FB3FF" transform="matrix(6.12323e-17 1 -1 6.12323e-17 75.8614 15.172)"/><rect x="37.9312" y="53.1029" width="7.58621" height="7.58621" fill="#2FB3FF" transform="matrix(6.12323e-17 1 -1 6.12323e-17 91.0341 15.1717)"/><rect x="0" y="0" width="7.58621" height="7.58621" fill="#2FB3FF" transform="matrix(-4.37114e-08 -1 -1 4.37114e-08 60.6899 189.655)"/><rect x="0" y="0" width="7.58621" height="7.58621" fill="#2FB3FF" transform="matrix(-4.37114e-08 -1 -1 4.37114e-08 53.1035 197.241)"/><rect x="0" y="0" width="7.58621" height="7.58621" fill="#2FB3FF" transform="matrix(-4.37114e-08 -1 -1 4.37114e-08 45.5176 204.827)"/><rect x="0" y="0" width="7.58621" height="7.58621" fill="#2FB3FF" transform="matrix(-4.37114e-08 -1 -1 4.37114e-08 37.9312 197.241)"/><rect x="0" y="0" width="7.58621" height="7.58621" fill="#2FB3FF" transform="matrix(-4.37114e-08 -1 -1 4.37114e-08 30.3447 189.655)"/><rect x="0" y="0" width="7.58621" height="7.58621" fill="#2FB3FF" transform="matrix(-4.37114e-08 -1 -1 4.37114e-08 22.7588 182.068)"/><rect x="0" y="0" width="7.58621" height="7.58621" fill="#2FB3FF" transform="matrix(-4.37114e-08 -1 -1 4.37114e-08 30.3447 174.482)"/><rect x="0" y="0" width="7.58621" height="7.58621" fill="#2FB3FF" transform="matrix(-4.37114e-08 -1 -1 4.37114e-08 37.9312 166.896)"/><rect x="159.31" y="189.655" width="7.58621" height="7.58621" fill="#2FB3FF" transform="matrix(6.12323e-17 -1 1 6.12323e-17 -30.345 348.965)"/><rect x="166.896" y="197.241" width="7.58621" height="7.58621" fill="#2FB3FF" transform="matrix(6.12323e-17 -1 1 6.12323e-17 -30.345 364.137)"/><rect x="174.482" y="204.827" width="7.58621" height="7.58621" fill="#2FB3FF" transform="matrix(6.12323e-17 -1 1 6.12323e-17 -30.345 379.309)"/><rect x="182.069" y="197.241" width="7.58621" height="7.58621" fill="#2FB3FF" transform="matrix(6.12323e-17 -1 1 6.12323e-17 -15.172 379.31)"/><rect x="189.655" y="189.655" width="7.58621" height="7.58621" fill="#2FB3FF" transform="matrix(6.12323e-17 -1 1 6.12323e-17 0 379.31)"/><rect x="197.241" y="182.068" width="7.58621" height="7.58621" fill="#2FB3FF" transform="matrix(6.12323e-17 -1 1 6.12323e-17 15.173 379.309)"/><rect x="189.655" y="174.482" width="7.58621" height="7.58621" fill="#2FB3FF" transform="matrix(6.12323e-17 -1 1 6.12323e-17 15.173 364.137)"/><rect x="0" y="0" width="7.58621" height="7.58621" fill="#2FB3FF" transform="matrix(4.37114e-08 1 1 -4.37114e-08 128.965 30.3442)"/><rect x="0" y="0" width="7.58621" height="7.58621" fill="#2FB3FF" transform="matrix(4.37114e-08 1 1 -4.37114e-08 136.552 30.3442)"/><rect x="0" y="0" width="7.58621" height="7.58621" fill="#2FB3FF" transform="matrix(4.37114e-08 1 1 -4.37114e-08 144.138 37.9307)"/><rect x="0" y="0" width="7.58621" height="7.58621" fill="#2FB3FF" transform="matrix(4.37114e-08 1 1 -4.37114e-08 151.725 37.9307)"/><rect x="182.069" y="166.896" width="7.58621" height="7.58621" fill="#2FB3FF" transform="matrix(6.12323e-17 -1 1 6.12323e-17 15.173 348.965)"/><rect x="45.5176" y="60.6892" width="15.1724" height="7.58621" fill="#2FB3FF" transform="matrix(6.12323e-17 1 -1 6.12323e-17 106.207 15.1716)"/><rect x="37.9312" y="75.8615" width="15.1724" height="7.58621" fill="#2FB3FF" transform="matrix(6.12323e-17 1 -1 6.12323e-17 113.793 37.9303)"/><rect x="0" y="0" width="15.1724" height="7.58621" fill="#2FB3FF" transform="matrix(-4.37114e-08 -1 -1 4.37114e-08 45.5176 159.31)"/><rect x="0" y="0" width="15.1724" height="7.58621" fill="#2FB3FF" transform="matrix(-4.37114e-08 -1 -1 4.37114e-08 37.9312 144.138)"/><rect x="189.655" y="128.965" width="15.1724" height="7.58621" fill="#2FB3FF" transform="matrix(6.12323e-17 1 -1 6.12323e-17 318.62 -60.69)"/><rect x="182.069" y="144.138" width="15.1724" height="7.58621" fill="#2FB3FF" transform="matrix(6.12323e-17 1 -1 6.12323e-17 326.207 -37.931)"/><rect x="128.965" y="189.655" width="7.58621" height="7.58621" fill="#2FB3FF" transform="matrix(6.12323e-17 -1 1 6.12323e-17 -60.69 318.62)"/><rect x="136.552" y="189.655" width="7.58621" height="7.58621" fill="#2FB3FF" transform="matrix(6.12323e-17 -1 1 6.12323e-17 -53.103 326.207)"/><rect x="144.138" y="182.068" width="7.58621" height="7.58621" fill="#2FB3FF" transform="matrix(6.12323e-17 -1 1 6.12323e-17 -37.93 326.206)"/><rect x="151.725" y="182.068" width="7.58621" height="7.58621" fill="#2FB3FF" transform="matrix(6.12323e-17 -1 1 6.12323e-17 -30.343 333.793)"/><rect x="0" y="0" width="7.58621" height="7.58621" fill="#2FB3FF" transform="matrix(4.37114e-08 1 1 -4.37114e-08 159.31 30.3442)"/><rect x="0" y="0" width="7.58621" height="7.58621" fill="#2FB3FF" transform="matrix(4.37114e-08 1 1 -4.37114e-08 98.6211 60.6892)"/><rect x="0" y="0" width="7.58621" height="7.58621" fill="#2FB3FF" transform="matrix(4.37114e-08 1 1 -4.37114e-08 98.6211 151.724)"/><rect x="0" y="0" width="7.58621" height="30.3448" fill="#2FB3FF" transform="matrix(4.37114e-08 1 1 -4.37114e-08 91.0347 68.2754)"/><rect x="0" y="0" width="7.58621" height="7.58621" fill="#2FB3FF" transform="matrix(4.37114e-08 1 1 -4.37114e-08 83.4478 68.2754)"/><rect x="0" y="0" width="7.58621" height="7.58621" fill="#2FB3FF" transform="matrix(4.37114e-08 1 1 -4.37114e-08 83.4478 75.8615)"/><rect x="0" y="0" width="7.58621" height="7.58621" fill="#2FB3FF" transform="matrix(4.37114e-08 1 1 -4.37114e-08 75.8623 83.4479)"/><rect x="0" y="0" width="7.58621" height="7.58621" fill="#2FB3FF" transform="matrix(4.37114e-08 1 1 -4.37114e-08 128.965 75.8615)"/><rect x="0" y="0" width="7.58621" height="7.58621" fill="#2FB3FF" transform="matrix(4.37114e-08 1 1 -4.37114e-08 136.552 83.4479)"/><rect x="0" y="0" width="7.58621" height="7.58621" fill="#2FB3FF" transform="matrix(4.37114e-08 1 1 -4.37114e-08 136.552 128.965)"/><rect x="0" y="0" width="7.58621" height="7.58621" fill="#2FB3FF" transform="matrix(4.37114e-08 1 1 -4.37114e-08 128.965 136.551)"/><rect x="0" y="0" width="7.58621" height="7.58621" fill="#2FB3FF" transform="matrix(4.37114e-08 1 1 -4.37114e-08 83.4478 136.551)"/><rect x="0" y="0" width="7.58621" height="7.58621" fill="#2FB3FF" transform="matrix(4.37114e-08 1 1 -4.37114e-08 75.8623 128.965)"/><rect x="0" y="0" width="7.58621" height="7.58621" fill="#2FB3FF" transform="matrix(4.37114e-08 1 1 -4.37114e-08 75.8623 75.8615)"/><rect x="0" y="0" width="7.58621" height="7.58621" fill="#2FB3FF" transform="matrix(4.37114e-08 1 1 -4.37114e-08 68.2754 83.4479)"/><rect x="128.965" y="68.2754" width="7.58621" height="7.58621" fill="#2FB3FF" transform="matrix(6.12323e-17 1 -1 6.12323e-17 197.24 -60.6896)"/><rect x="136.552" y="68.2754" width="7.58621" height="7.58621" fill="#2FB3FF" transform="matrix(6.12323e-17 1 -1 6.12323e-17 204.827 -68.2766)"/><rect x="0" y="0" width="30.3448" height="7.58621" fill="#2FB3FF" transform="matrix(4.37114e-08 1 1 -4.37114e-08 68.2754 91.0339)"/><rect x="144.138" y="75.8615" width="7.58621" height="7.58621" fill="#2FB3FF" transform="matrix(6.12323e-17 1 -1 6.12323e-17 220 -68.2765)"/><rect x="151.725" y="83.4479" width="7.58621" height="7.58621" fill="#2FB3FF" transform="matrix(6.12323e-17 1 -1 6.12323e-17 235.173 -68.2771)"/><rect x="0" y="0" width="7.58621" height="7.58621" fill="#2FB3FF" transform="matrix(4.37114e-08 1 1 -4.37114e-08 68.2754 121.379)"/><rect x="151.725" y="121.379" width="7.58621" height="7.58621" fill="#2FB3FF" transform="matrix(6.12323e-17 1 -1 6.12323e-17 273.104 -30.346)"/><rect x="151.725" y="91.0339" width="30.3448" height="7.58621" fill="#2FB3FF" transform="matrix(6.12323e-17 1 -1 6.12323e-17 242.759 -60.6911)"/><rect x="0" y="0" width="7.58621" height="7.58621" fill="#2FB3FF" transform="matrix(4.37114e-08 1 1 -4.37114e-08 68.2754 128.965)"/><rect x="151.725" y="128.965" width="7.58621" height="7.58621" fill="#2FB3FF" transform="matrix(6.12323e-17 1 -1 6.12323e-17 280.69 -22.76)"/><rect x="0" y="0" width="7.58621" height="7.58621" fill="#2FB3FF" transform="matrix(4.37114e-08 1 1 -4.37114e-08 75.8623 136.551)"/><rect x="144.138" y="136.551" width="7.58621" height="7.58621" fill="#2FB3FF" transform="matrix(6.12323e-17 1 -1 6.12323e-17 280.689 -7.587)"/><rect x="0" y="0" width="7.58621" height="7.58621" fill="#2FB3FF" transform="matrix(4.37114e-08 1 1 -4.37114e-08 83.4478 144.138)"/><rect x="136.552" y="144.138" width="7.58621" height="7.58621" fill="#2FB3FF" transform="matrix(6.12323e-17 1 -1 6.12323e-17 280.69 7.586)"/><rect x="0" y="0" width="7.58621" height="7.58621" fill="#2FB3FF" transform="matrix(4.37114e-08 1 1 -4.37114e-08 91.0347 144.138)"/><rect x="128.965" y="144.138" width="7.58621" height="33.1897" fill="#2FB3FF" transform="matrix(6.12323e-17 1 -1 6.12323e-17 273.103 15.173)"/><rect x="0" y="0" width="22.7586" height="7.58621" fill="#2FB3FF" transform="matrix(4.37114e-08 1 1 -4.37114e-08 60.6899 98.6201)"/><rect x="0" y="0" width="22.7586" height="7.58621" fill="#2FB3FF" transform="matrix(4.37114e-08 1 1 -4.37114e-08 151.725 98.6201)"/><rect x="0" y="0" width="7.58621" height="7.58621" fill="#2FB3FF" transform="matrix(4.37114e-08 1 1 -4.37114e-08 106.207 60.6892)"/><rect x="0" y="0" width="7.58621" height="7.58621" fill="#2FB3FF" transform="matrix(4.37114e-08 1 1 -4.37114e-08 106.207 151.724)"/><rect x="0" y="0" width="7.58621" height="7.58621" fill="#2FB3FF" transform="matrix(4.37114e-08 1 1 -4.37114e-08 113.793 60.6892)"/><rect x="0" y="0" width="7.58621" height="7.58621" fill="#2FB3FF" transform="matrix(4.37114e-08 1 1 -4.37114e-08 113.793 151.724)"/><rect x="121.379" y="0.000732422" width="7.58621" height="7.58621" fill="#2FB3FF" transform="matrix(6.12323e-17 1 -1 6.12323e-17 121.38 -121.378)"/><rect x="0" y="0" width="7.58621" height="7.58621" fill="#2FB3FF" transform="matrix(4.37114e-08 1 1 -4.37114e-08 166.896 22.7582)"/><rect x="128.965" y="0.000732422" width="30.3448" height="7.58621" fill="#2FB3FF" transform="matrix(6.12323e-17 1 -1 6.12323e-17 128.966 -128.964)"/><rect x="0" y="0" width="7.58621" height="7.58621" fill="#2FB3FF" transform="matrix(4.37114e-08 1 1 -4.37114e-08 174.482 15.172)"/><rect x="0" y="0" width="7.58621" height="7.58621" fill="#2FB3FF" transform="matrix(4.37114e-08 1 1 -4.37114e-08 182.069 22.7582)"/><rect x="0" y="0" width="7.58621" height="7.58621" fill="#2FB3FF" transform="matrix(4.37114e-08 1 1 -4.37114e-08 189.655 30.3442)"/><rect x="0" y="0" width="7.58621" height="7.58621" fill="#2FB3FF" transform="matrix(4.37114e-08 1 1 -4.37114e-08 197.241 37.9307)"/><rect x="0" y="0" width="7.58621" height="7.58621" fill="#2FB3FF" transform="matrix(4.37114e-08 1 1 -4.37114e-08 189.655 45.5167)"/><rect x="0" y="0" width="7.58621" height="7.58621" fill="#2FB3FF" transform="matrix(4.37114e-08 1 1 -4.37114e-08 182.069 53.1029)"/><rect x="0" y="98.6201" width="7.58621" height="7.58621" fill="#2FB3FF"/><rect x="0" y="0" width="15.1724" height="7.58621" fill="#2FB3FF" transform="matrix(4.37114e-08 1 1 -4.37114e-08 174.482 60.6892)"/><rect x="0" y="91.0339" width="30.3448" height="7.58621" fill="#2FB3FF"/><rect x="0" y="0" width="15.1724" height="7.58621" fill="#2FB3FF" transform="matrix(4.37114e-08 1 1 -4.37114e-08 182.069 75.8615)"/><rect x="0" y="0" width="7.58621" height="7.58621" fill="#2FB3FF" transform="matrix(-4.37114e-08 -1 -1 4.37114e-08 121.379 220)"/><rect x="0" y="0" width="7.58621" height="7.58621" fill="#2FB3FF" transform="matrix(-1 0 0 1 220 98.6202)"/><rect x="0" y="0" width="30.3448" height="7.58621" fill="#2FB3FF" transform="matrix(-4.37114e-08 -1 -1 4.37114e-08 128.965 220)"/><rect x="0" y="0" width="30.3448" height="7.58621" fill="#2FB3FF" transform="matrix(-1 0 0 1 220 91.0341)"/></svg>