<svg xmlns="http://www.w3.org/2000/svg" width="236" height="220" fill="none" overflow="hidden"><path fill="#00bcff" d="M15.714 0h15.714v15.714H15.714zM0 15.714h15.714v110H0zM220 15.714h15.714V110H220zM0 125.714h15.714v15.714H0zM220 125.714h15.714v15.714H220zM0 157.143h15.714v15.714H0zM0 172.857h15.714v15.714H0zM0 188.571h15.714v15.714H0zM15.714 204.286h15.714V220H15.714zM31.428 204.286h15.714V220H31.428zM220 157.143h15.714v15.714H220zM220 172.857h15.714v15.714H220zM220 188.571h15.714v15.714H220zM31.428 172.857h132.658v15.714H31.428z"/><path fill="#00bcff" d="M62.858 172.857h15.714v15.714H62.858zM94.286 172.857H110v15.714H94.286zM125.714 172.857h15.714v15.714h-15.714zM157.142 172.857h15.714v15.714h-15.714zM172.858 172.857h15.714v15.714h-15.714zM188.572 172.857h15.714v15.714h-15.714zM44.586 204.286h175.415V220H44.586zM220 110h15.714v15.714H220zM15.714 141.429H220v15.714H15.714zM31.428 0h188.571v15.714H31.428z"/></svg>