<svg width="191" height="161" viewBox="0 0 191 161" xmlns="http://www.w3.org/2000/svg" xmlns:xlink="http://www.w3.org/1999/xlink" fill="none" overflow="hidden"><rect x="0.727295" y="0" width="190.273" height="14.6364" fill="#8EFF59"/><rect x="30" y="29.2727" width="14.6364" height="14.6364" fill="#8EFF59"/><rect x="59.2727" y="29.2727" width="14.6364" height="14.6364" fill="#8EFF59"/><rect x="88.5454" y="29.2727" width="14.6364" height="14.6364" fill="#8EFF59"/><rect x="30" y="58.5455" width="14.6364" height="14.6364" fill="#8EFF59"/><rect x="59.2727" y="58.5455" width="14.6364" height="14.6364" fill="#8EFF59"/><rect x="88.5454" y="58.5455" width="14.6364" height="14.6364" fill="#8EFF59"/><rect x="103.182" y="117.091" width="14.6364" height="14.6364" fill="#8EFF59"/><rect x="117.818" y="131.727" width="14.6364" height="14.6364" fill="#8EFF59"/><rect x="132.455" y="146.364" width="14.6364" height="14.6364" fill="#8EFF59"/><rect x="147.091" y="117.091" width="14.6364" height="43.9091" fill="#8EFF59"/><rect x="161.727" y="102.455" width="14.6364" height="14.6364" fill="#8EFF59"/><rect x="147.091" y="102.455" width="14.6364" height="14.6364" fill="#8EFF59"/><rect x="15.3638" y="102.455" width="87.8182" height="14.6364" fill="#8EFF59"/><rect x="0.727295" y="14.6364" width="14.6364" height="102.455" fill="#8EFF59"/><rect x="176.364" y="14.6364" width="14.6364" height="102.455" fill="#8EFF59"/></svg>